<svg width="54" height="54" viewBox="0 0 54 54" fill="none" xmlns="http://www.w3.org/2000/svg">
<path d="M27 27H34C37.713 27 41.274 25.525 43.8995 22.8995C46.525 20.274 48 16.713 48 13V10.6667H41C37.287 10.6667 33.726 12.1417 31.1005 14.7672C28.475 17.3927 27 20.9536 27 24.6667H20C16.287 24.6667 12.726 23.1917 10.1005 20.5662C7.475 17.9407 6 14.3797 6 10.6667V6H13C16.713 6 20.274 7.475 22.8995 10.1005C25.525 12.726 27 16.287 27 20V34M38.6667 43.3333C38.6667 44.571 38.175 45.758 37.2998 46.6332C36.4247 47.5083 35.2377 48 34 48H20C18.7623 48 17.5753 47.5083 16.7002 46.6332C15.825 45.758 15.3333 44.571 15.3333 43.3333C15.3333 38.1787 19.512 34 24.6667 34H29.3333C34.488 34 38.6667 38.1787 38.6667 43.3333Z" stroke="#107FE8" stroke-width="5" stroke-linecap="round" stroke-linejoin="round"/>
</svg>
