<svg width="54" height="54" viewBox="0 0 54 54" fill="none" xmlns="http://www.w3.org/2000/svg">
<path d="M41.6896 38.4628L30.6717 49.4807C29.6979 50.4536 28.3777 51 27.0012 51C25.6247 51 24.3046 50.4536 23.3307 49.4807L12.3102 38.4628C9.40506 35.5575 7.42665 31.8559 6.62517 27.8262C5.82369 23.7965 6.23515 19.6197 7.8075 15.8238C9.37986 12.0279 12.0425 8.78356 15.4587 6.50095C18.8749 4.21834 22.8913 3 26.9999 3C31.1086 3 35.1249 4.21834 38.5411 6.50095C41.9574 8.78356 44.62 12.0279 46.1924 15.8238C47.7647 19.6197 48.1762 23.7965 47.3747 27.8262C46.5732 31.8559 44.5948 35.5575 41.6896 38.4628Z" stroke="#107FE8" stroke-width="4.5" stroke-linecap="round" stroke-linejoin="round"/>
<path d="M33.5 23.5C33.5 25.2239 32.8152 26.8772 31.5962 28.0962C30.3772 29.3152 28.7239 30 27 30C25.2761 30 23.6228 29.3152 22.4038 28.0962C21.1848 26.8772 20.5 25.2239 20.5 23.5C20.5 21.7761 21.1848 20.1228 22.4038 18.9038C23.6228 17.6848 25.2761 17 27 17C28.7239 17 30.3772 17.6848 31.5962 18.9038C32.8152 20.1228 33.5 21.7761 33.5 23.5Z" stroke="#107FE8" stroke-width="4.5" stroke-linecap="round" stroke-linejoin="round"/>
</svg>
