<svg width="54" height="54" viewBox="0 0 54 54" fill="none" xmlns="http://www.w3.org/2000/svg">
<path d="M50.6967 18.8126C53.7473 15.7023 52.3563 12.0696 50.6967 10.303L43.3754 2.83852C40.3004 -0.271694 36.7618 1.14656 35.0291 2.83852L30.8803 7.09329H24.5596C19.9227 7.09329 17.2382 9.58145 15.8716 12.4428L5.03597 23.4903V33.443L3.30326 35.1847C0.252696 38.3198 1.64375 41.9276 3.30326 43.6942L10.6246 51.1588C11.9424 52.5024 13.3579 53 14.7001 53C16.4329 53 18.0192 52.1291 18.9709 51.1588L25.5601 44.4158H34.3213C38.4701 44.4158 40.5689 41.7784 41.3254 39.1907C44.0831 38.4442 45.5962 36.3044 46.2063 34.2143C49.989 33.2191 51.4045 29.5614 51.4045 26.9986V19.5341H49.9646L50.6967 18.8126ZM46.5236 26.9986C46.5236 28.1183 46.0599 29.4868 44.0831 29.4868H41.6427V31.975C41.6427 33.0947 41.179 34.4631 39.2022 34.4631H36.7618V36.9513C36.7618 38.071 36.2981 39.4395 34.3213 39.4395H23.559L15.5543 47.6007C14.7978 48.3222 14.3585 47.8993 14.09 47.6256L6.7931 40.2108C6.08537 39.4395 6.50024 38.9916 6.76869 38.7179L9.91687 35.4833V25.5306L14.7978 20.5543V24.5105C14.7978 27.5212 16.7501 31.975 22.1191 31.975C27.4881 31.975 29.4405 27.5212 29.4405 24.5105H46.5236V26.9986ZM47.2313 15.2794L43.0826 19.5341H24.5596V24.5105C24.5596 25.6301 24.0959 26.9986 22.1191 26.9986C20.1423 26.9986 19.6787 25.6301 19.6787 24.5105V17.046C19.6787 15.9014 20.0935 12.0696 24.5596 12.0696H32.8815L38.4457 6.3966C39.2022 5.67503 39.6415 6.09802 39.91 6.37172L47.2069 13.7865C47.9146 14.5578 47.4998 15.0057 47.2313 15.2794Z" fill="#107FE8"/>
</svg>
