<svg width="54" height="54" viewBox="0 0 54 54" fill="none" xmlns="http://www.w3.org/2000/svg">
<path d="M21.4005 8.09371C21.533 6.70002 22.1803 5.4058 23.216 4.46387C24.2517 3.52195 25.6014 3 27.0014 3C28.4013 3 29.751 3.52195 30.7867 4.46387C31.8224 5.4058 32.4697 6.70002 32.6022 8.09371C32.6818 8.99401 32.9772 9.86188 33.4633 10.6239C33.9494 11.3858 34.6119 12.0195 35.3947 12.4712C36.1776 12.9229 37.0577 13.1793 37.9607 13.2188C38.8637 13.2583 39.7628 13.0796 40.5821 12.698C41.8543 12.1204 43.2958 12.0368 44.6262 12.4635C45.9565 12.8902 47.0806 13.7966 47.7795 15.0064C48.4784 16.2161 48.7022 17.6426 48.4073 19.0082C48.1124 20.3739 47.32 21.581 46.1842 22.3945C45.4446 22.9135 44.8408 23.603 44.424 24.4046C44.0072 25.2062 43.7896 26.0965 43.7896 27C43.7896 27.9035 44.0072 28.7938 44.424 29.5954C44.8408 30.397 45.4446 31.0865 46.1842 31.6055C47.32 32.419 48.1124 33.6261 48.4073 34.9918C48.7022 36.3574 48.4784 37.7839 47.7795 38.9937C47.0806 40.2034 45.9565 41.1098 44.6262 41.5365C43.2958 41.9632 41.8543 41.8796 40.5821 41.302C39.7628 40.9204 38.8637 40.7417 37.9607 40.7812C37.0577 40.8207 36.1776 41.0771 35.3947 41.5288C34.6119 41.9805 33.9494 42.6142 33.4633 43.3761C32.9772 44.1381 32.6818 45.006 32.6022 45.9063C32.4697 47.3 31.8224 48.5942 30.7867 49.5361C29.751 50.4781 28.4013 51 27.0014 51C25.6014 51 24.2517 50.4781 23.216 49.5361C22.1803 48.5942 21.533 47.3 21.4005 45.9063C21.3211 45.0057 21.0257 44.1375 20.5395 43.3752C20.0532 42.613 19.3905 41.9791 18.6073 41.5274C17.8241 41.0756 16.9436 40.8193 16.0403 40.7801C15.137 40.7408 14.2376 40.9199 13.4182 41.302C12.1461 41.8796 10.7045 41.9632 9.37418 41.5365C8.04381 41.1098 6.91979 40.2034 6.22088 38.9937C5.52198 37.7839 5.29818 36.3574 5.59306 34.9918C5.88794 33.6261 6.68039 32.419 7.81618 31.6055C8.5558 31.0865 9.15954 30.397 9.57635 29.5954C9.99316 28.7938 10.2108 27.9035 10.2108 27C10.2108 26.0965 9.99316 25.2062 9.57635 24.4046C9.15954 23.603 8.5558 22.9135 7.81618 22.3945C6.68198 21.5806 5.89093 20.3739 5.59677 19.0092C5.3026 17.6445 5.52634 16.2192 6.22449 15.0102C6.92265 13.8013 8.04534 12.8951 9.37439 12.4677C10.7034 12.0404 12.1439 12.1225 13.4158 12.698C14.2351 13.0796 15.1343 13.2583 16.0372 13.2188C16.9402 13.1793 17.8204 12.9229 18.6032 12.4712C19.3861 12.0195 20.0486 11.3858 20.5347 10.6239C21.0207 9.86188 21.3161 8.99401 21.3957 8.09371" stroke="#107FE8" stroke-width="5" stroke-linecap="round" stroke-linejoin="round"/>
<path d="M27 34.2142C30.9836 34.2142 34.213 30.9849 34.213 27.0013C34.213 23.0177 30.9836 19.7883 27 19.7883C23.0164 19.7883 19.7871 23.0177 19.7871 27.0013C19.7871 30.9849 23.0164 34.2142 27 34.2142Z" stroke="#107FE8" stroke-width="5" stroke-linecap="round" stroke-linejoin="round"/>
</svg>
