<svg width="142" height="25" viewBox="0 0 142 25" fill="none" xmlns="http://www.w3.org/2000/svg">
<path d="M6.46 24.344L0 0H5.1L8.432 13.668L8.84 16.218H9.112L9.656 13.668L13.94 0H18.462L22.644 13.668L23.188 16.15H23.46L23.868 13.668L27.166 0H32.266L25.976 24.344H21.046L16.898 9.656L16.354 7.038H16.082L15.538 9.656L11.186 24.344H6.46Z" fill="#107FE8"/>
<path d="M38.9438 24.888C37.7198 24.888 36.6318 24.65 35.6798 24.174C34.7505 23.6753 34.0138 22.984 33.4698 22.1C32.9258 21.216 32.6538 20.196 32.6538 19.04C32.6538 17.8387 32.9598 16.8073 33.5718 15.946C34.2065 15.0847 35.0451 14.416 36.0878 13.94C37.1531 13.464 38.3318 13.226 39.6238 13.226C40.3265 13.226 40.9611 13.2713 41.5278 13.362C42.1171 13.43 42.6385 13.5207 43.0918 13.634C43.5451 13.7473 43.9191 13.872 44.2138 14.008V13.26C44.2138 12.3307 43.8625 11.5713 43.1598 10.982C42.4571 10.37 41.4938 10.064 40.2698 10.064C39.4538 10.064 38.6605 10.2567 37.8898 10.642C37.1418 11.0047 36.5185 11.492 36.0198 12.104L33.1638 9.86C33.7305 9.13467 34.3878 8.52267 35.1358 8.024C35.8838 7.50267 36.7111 7.11733 37.6178 6.868C38.5245 6.596 39.4765 6.46 40.4738 6.46C43.1258 6.46 45.1431 7.072 46.5258 8.296C47.9085 9.52 48.5998 11.3107 48.5998 13.668V24.344H44.2138V22.576H43.9418C43.6245 22.984 43.2278 23.3693 42.7518 23.732C42.2758 24.072 41.7205 24.344 41.0858 24.548C40.4511 24.7747 39.7371 24.888 38.9438 24.888ZM39.9978 21.42C40.9045 21.42 41.6638 21.2273 42.2758 20.842C42.9105 20.434 43.3865 19.9127 43.7038 19.278C44.0438 18.6433 44.2138 17.9747 44.2138 17.272C43.7151 17.0227 43.1485 16.83 42.5138 16.694C41.8791 16.5353 41.2331 16.456 40.5758 16.456C39.2611 16.456 38.3545 16.7053 37.8558 17.204C37.3571 17.7027 37.1078 18.3147 37.1078 19.04C37.1078 19.72 37.3458 20.2867 37.8218 20.74C38.3205 21.1933 39.0458 21.42 39.9978 21.42Z" fill="black"/>
<path d="M59.2272 24.888C57.7312 24.888 56.4505 24.6727 55.3852 24.242C54.3425 23.8113 53.4925 23.2447 52.8352 22.542C52.1779 21.8393 51.6905 21.0687 51.3732 20.23L55.3512 18.496C55.7365 19.312 56.2579 19.9353 56.9152 20.366C57.5725 20.774 58.3432 20.978 59.2272 20.978C59.9525 20.978 60.6099 20.8647 61.1992 20.638C61.7885 20.3887 62.0832 19.9467 62.0832 19.312C62.0832 18.8587 61.9245 18.5073 61.6072 18.258C61.3125 17.986 60.9385 17.782 60.4852 17.646C60.0319 17.4873 59.5672 17.3627 59.0912 17.272L57.0512 16.83C56.2125 16.6487 55.4192 16.3313 54.6712 15.878C53.9232 15.402 53.3112 14.8127 52.8352 14.11C52.3819 13.3847 52.1552 12.5573 52.1552 11.628C52.1552 10.5853 52.4499 9.67867 53.0392 8.908C53.6512 8.13733 54.4672 7.53667 55.4872 7.106C56.5299 6.67533 57.6745 6.46 58.9212 6.46C60.0772 6.46 61.1199 6.596 62.0492 6.868C62.9785 7.14 63.7832 7.55933 64.4632 8.126C65.1432 8.67 65.6872 9.37267 66.0952 10.234L62.2872 11.9C61.9245 11.22 61.4485 10.744 60.8592 10.472C60.2925 10.2 59.6805 10.064 59.0232 10.064C58.2525 10.064 57.6405 10.2113 57.1872 10.506C56.7339 10.8007 56.5072 11.152 56.5072 11.56C56.5072 11.9907 56.7339 12.3647 57.1872 12.682C57.6405 12.9993 58.1845 13.2373 58.8192 13.396L61.3692 14.008C63.0919 14.416 64.3839 15.0733 65.2452 15.98C66.1292 16.8867 66.5712 17.9747 66.5712 19.244C66.5712 20.3773 66.2425 21.3747 65.5852 22.236C64.9279 23.0747 64.0439 23.732 62.9332 24.208C61.8225 24.6613 60.5872 24.888 59.2272 24.888Z" fill="black"/>
<path d="M76.3268 24.888C74.8308 24.888 73.5501 24.6727 72.4848 24.242C71.4421 23.8113 70.5921 23.2447 69.9348 22.542C69.2775 21.8393 68.7901 21.0687 68.4728 20.23L72.4508 18.496C72.8361 19.312 73.3575 19.9353 74.0148 20.366C74.6721 20.774 75.4428 20.978 76.3268 20.978C77.0521 20.978 77.7095 20.8647 78.2988 20.638C78.8881 20.3887 79.1828 19.9467 79.1828 19.312C79.1828 18.8587 79.0241 18.5073 78.7068 18.258C78.4121 17.986 78.0381 17.782 77.5848 17.646C77.1315 17.4873 76.6668 17.3627 76.1908 17.272L74.1508 16.83C73.3121 16.6487 72.5188 16.3313 71.7708 15.878C71.0228 15.402 70.4108 14.8127 69.9348 14.11C69.4815 13.3847 69.2548 12.5573 69.2548 11.628C69.2548 10.5853 69.5495 9.67867 70.1388 8.908C70.7508 8.13733 71.5668 7.53667 72.5868 7.106C73.6295 6.67533 74.7741 6.46 76.0208 6.46C77.1768 6.46 78.2195 6.596 79.1488 6.868C80.0781 7.14 80.8828 7.55933 81.5628 8.126C82.2428 8.67 82.7868 9.37267 83.1948 10.234L79.3868 11.9C79.0241 11.22 78.5481 10.744 77.9588 10.472C77.3922 10.2 76.7801 10.064 76.1228 10.064C75.3521 10.064 74.7401 10.2113 74.2868 10.506C73.8335 10.8007 73.6068 11.152 73.6068 11.56C73.6068 11.9907 73.8335 12.3647 74.2868 12.682C74.7401 12.9993 75.2841 13.2373 75.9188 13.396L78.4688 14.008C80.1915 14.416 81.4835 15.0733 82.3448 15.98C83.2288 16.8867 83.6708 17.9747 83.6708 19.244C83.6708 20.3773 83.3421 21.3747 82.6848 22.236C82.0275 23.0747 81.1435 23.732 80.0328 24.208C78.9221 24.6613 77.6868 24.888 76.3268 24.888Z" fill="black"/>
<path d="M94.9564 24.888C93.2111 24.888 91.6471 24.4913 90.2644 23.698C88.9044 22.9047 87.8278 21.8167 87.0344 20.434C86.2638 19.0513 85.8784 17.476 85.8784 15.708C85.8784 14.0533 86.2638 12.5233 87.0344 11.118C87.8051 9.71267 88.8591 8.59067 90.1964 7.752C91.5338 6.89067 93.0638 6.46 94.7864 6.46C96.6451 6.46 98.2091 6.85667 99.4784 7.65C100.748 8.44333 101.711 9.50867 102.368 10.846C103.026 12.1607 103.354 13.6227 103.354 15.232C103.354 15.5947 103.343 15.912 103.32 16.184C103.298 16.4333 103.275 16.6147 103.252 16.728H88.3604V13.566H99.0704C99.0478 13.1807 98.9344 12.784 98.7304 12.376C98.5264 11.968 98.2431 11.594 97.8804 11.254C97.5178 10.914 97.0758 10.642 96.5544 10.438C96.0558 10.2113 95.4778 10.098 94.8204 10.098C93.9591 10.098 93.1658 10.3247 92.4404 10.778C91.7378 11.2313 91.1824 11.866 90.7744 12.682C90.3664 13.4753 90.1624 14.4273 90.1624 15.538C90.1624 16.694 90.3778 17.68 90.8084 18.496C91.2391 19.2893 91.8171 19.9013 92.5424 20.332C93.2904 20.74 94.1178 20.944 95.0244 20.944C96.0898 20.944 96.9851 20.7173 97.7104 20.264C98.4358 19.788 99.0024 19.1987 99.4104 18.496L103.014 20.264C102.198 21.692 101.133 22.8253 99.8184 23.664C98.5038 24.48 96.8831 24.888 94.9564 24.888Z" fill="black"/>
<path d="M106.686 24.344V7.004H110.868V9.316H111.14C111.435 8.772 111.82 8.296 112.296 7.888C112.795 7.45733 113.373 7.11733 114.03 6.868C114.687 6.61867 115.39 6.494 116.138 6.494C116.591 6.494 116.999 6.528 117.362 6.596C117.725 6.664 118.042 6.75467 118.314 6.868V11.322C117.838 11.1407 117.362 10.9933 116.886 10.88C116.433 10.744 115.945 10.676 115.424 10.676C114.54 10.676 113.769 10.9027 113.112 11.356C112.477 11.7867 111.99 12.3873 111.65 13.158C111.31 13.906 111.14 14.756 111.14 15.708V24.344H106.686Z" fill="black"/>
<path d="M119.908 0H125.586L130.312 7.956H131.298L141.6 24.344H135.888L130.584 15.572H129.768L119.908 0ZM119.296 24.344L129.564 7.956H130.584L135.276 0H140.988L131.128 15.572H130.312L125.008 24.344H119.296Z" fill="black"/>
</svg>
